<?xml version="1.0" encoding="UTF-8"?><svg id="uuid-3d4ce8cc-25da-4826-a73b-0a7bcebcc485" xmlns="http://www.w3.org/2000/svg" viewBox="0 0 1136.56 302.49"><defs><style>.uuid-d23cb656-53b0-477c-8ea9-9389b427a5b7{fill:#2b4fdb;}.uuid-4c26a3a4-62e3-485a-b9bf-edef44483d9d{stroke:#999;}.uuid-4c26a3a4-62e3-485a-b9bf-edef44483d9d,.uuid-ba2008fe-96e8-4c3a-a4b3-5ef1b6941e56{fill:none;stroke-miterlimit:10;stroke-width:3px;}.uuid-5551678e-542d-487d-9a7c-5a939423092a{fill:#ccc;}.uuid-78cc2451-a32b-4c83-b4fa-173f14262cd6{fill:#c1c1c1;}.uuid-6c9835c6-34bc-4f95-9744-4f7461d56695{fill:#b4b3af;}.uuid-ba2008fe-96e8-4c3a-a4b3-5ef1b6941e56{stroke:#b2b2b2;}</style></defs><g id="uuid-c1045201-3635-4ede-806a-3bdea728c951"><rect class="uuid-6c9835c6-34bc-4f95-9744-4f7461d56695" x="454.58" y="5.68" width="36.1" height="290.81"/><rect class="uuid-6c9835c6-34bc-4f95-9744-4f7461d56695" x="401.97" y="6.24" width="35.58" height="290.27"/><path class="uuid-6c9835c6-34bc-4f95-9744-4f7461d56695" d="M783.91,223.09l.11,29.12-222.27-.04c4.37-5.92,10.08-10.34,15.68-15.73l82.58-79.64,66.6-64.22,43.27-42.59,14.05-.1.04,29.83-90.59,89.54-54.17,53.38,114.04.29,30.65.17Z"/><path class="uuid-6c9835c6-34bc-4f95-9744-4f7461d56695" d="M525.93,251.66l.23-29.82,33.06-32.49,26.57-25.48,56.43-54.91,28.84-29.32-142.73-.31-.16-29.56c9.07-.72,17.08.11,26.16.11l192.29-.05-104.33,101.05-70.91,68.3-34.85,32.91c-3.39.16-6.15-.04-10.62-.42Z"/><rect class="uuid-6c9835c6-34bc-4f95-9744-4f7461d56695" x="525.8" y="267.26" width="258.01" height="29.27"/><rect class="uuid-6c9835c6-34bc-4f95-9744-4f7461d56695" x="641.6" y="-107.16" width="29.32" height="255.8" transform="translate(634.78 676.98) rotate(-89.94)"/><path class="uuid-6c9835c6-34bc-4f95-9744-4f7461d56695" d="M1080.39,49.63l.08,202.89-220.47.07-.08-202.89,220.47-.07ZM897.12,79.27l-.15,143.72,147.71.12.15-143.72-147.71-.12Z"/><path class="uuid-6c9835c6-34bc-4f95-9744-4f7461d56695" d="M843.73,252.14c-33.93-36.58-40.81-73.15-37.8-118.48,1.95-29.3,13.87-55.97,33.71-79.08.67-.78.15-2.33.56-2.89.8-1.1,1.89-1.07,3.55-.47l-.03,200.92Z"/><path class="uuid-6c9835c6-34bc-4f95-9744-4f7461d56695" d="M1135.73,169.63c-2.28,30.33-14.11,58.27-37.28,82.08l-.48-140.9c1.28-2.64.14-4.7.16-7.14l.3-53.39c21.51,23.14,31.93,45.55,36.91,75.38,1.09,14.84,1.91,28.64.4,43.97Z"/><path class="uuid-6c9835c6-34bc-4f95-9744-4f7461d56695" d="M1080.6,267.76c-59.06,46.24-159.66,46.42-218.84-.11l218.84.11Z"/><path class="uuid-6c9835c6-34bc-4f95-9744-4f7461d56695" d="M1079.57,34.31l-210.3.13c-1.64,0-2.62,1.76-3.8.72-.59-.52-2.39-.56-2.06-1.78.4-1.48,1.84-1.98,3.15-2.8,11.83-7.4,23.18-14.3,37.02-19.23,38.94-13.88,82.34-14.88,122.38-3.83,2.15.59,3.19,2.56,5.67,1.51,16.75,6.31,33.05,12.82,47.94,25.28Z"/><polygon class="uuid-6c9835c6-34bc-4f95-9744-4f7461d56695" points=".11 32.72 351.42 32.17 351.44 137.26 .14 137.81 .11 32.72"/><polygon class="uuid-5551678e-542d-487d-9a7c-5a939423092a" points=".11 32.72 28.39 5.39 370.14 5.39 351.42 32.17 .11 32.72"/><path class="uuid-78cc2451-a32b-4c83-b4fa-173f14262cd6" d="M370.14,5.39l.22,104.41-18.92,27.46-.03-105.09s17.13-23.16,18.72-26.78Z"/><polygon class="uuid-6c9835c6-34bc-4f95-9744-4f7461d56695" points="0 164.34 351.3 163.79 351.33 268.88 .03 269.43 0 164.34"/><polygon class="uuid-d23cb656-53b0-477c-8ea9-9389b427a5b7" points="0 164.34 28.28 137 370.03 137 351.3 163.79 0 164.34"/><path class="uuid-78cc2451-a32b-4c83-b4fa-173f14262cd6" d="M370.03,137l.22,104.41-18.92,27.46-.03-105.09s17.13-23.16,18.72-26.78Z"/><polygon class="uuid-d23cb656-53b0-477c-8ea9-9389b427a5b7" points=".34 296.21 28.62 268.88 370.36 268.88 351.64 295.66 .34 296.21"/><line class="uuid-4c26a3a4-62e3-485a-b9bf-edef44483d9d" x1="175.67" y1="137" x2="175.67" y2="32.72"/><line class="uuid-4c26a3a4-62e3-485a-b9bf-edef44483d9d" x1="175.67" y1="269.37" x2="175.67" y2="164.34"/><line class="uuid-ba2008fe-96e8-4c3a-a4b3-5ef1b6941e56" x1="175.67" y1="32.72" x2="199.14" y2="5.39"/><line class="uuid-4c26a3a4-62e3-485a-b9bf-edef44483d9d" x1="1097.97" y1="150.65" x2="1136.56" y2="150.65"/><line class="uuid-4c26a3a4-62e3-485a-b9bf-edef44483d9d" x1="1044.83" y1="150.65" x2="1080.47" y2="150.65"/><line class="uuid-4c26a3a4-62e3-485a-b9bf-edef44483d9d" x1="859.92" y1="150.65" x2="896.97" y2="150.65"/><line class="uuid-4c26a3a4-62e3-485a-b9bf-edef44483d9d" x1="805.29" y1="150.65" x2="843.76" y2="150.65"/><line class="uuid-4c26a3a4-62e3-485a-b9bf-edef44483d9d" x1="666.39" y1="150.65" x2="712.22" y2="150.65"/><line class="uuid-4c26a3a4-62e3-485a-b9bf-edef44483d9d" x1="599.37" y1="150.65" x2="641.82" y2="150.65"/><line class="uuid-4c26a3a4-62e3-485a-b9bf-edef44483d9d" x1="454.48" y1="150.65" x2="490.68" y2="150.65"/><line class="uuid-4c26a3a4-62e3-485a-b9bf-edef44483d9d" x1="402.34" y1="150.65" x2="437.56" y2="150.65"/><line class="uuid-4c26a3a4-62e3-485a-b9bf-edef44483d9d" x1="1014.37" y1="34.35" x2="1014.37" y2="5.24"/><line class="uuid-4c26a3a4-62e3-485a-b9bf-edef44483d9d" x1="1014.37" y1="79.27" x2="1014.37" y2="49.63"/><line class="uuid-4c26a3a4-62e3-485a-b9bf-edef44483d9d" x1="1014.37" y1="252.58" x2="1014.37" y2="223.11"/><line class="uuid-4c26a3a4-62e3-485a-b9bf-edef44483d9d" x1="1014.37" y1="297.87" x2="1014.37" y2="267.72"/><line class="uuid-4c26a3a4-62e3-485a-b9bf-edef44483d9d" x1="654.75" y1="35.55" x2="654.75" y2="6.24"/><line class="uuid-4c26a3a4-62e3-485a-b9bf-edef44483d9d" x1="654.75" y1="79.59" x2="654.75" y2="49.89"/><line class="uuid-4c26a3a4-62e3-485a-b9bf-edef44483d9d" x1="654.75" y1="138.8" x2="654.75" y2="96.8"/><line class="uuid-4c26a3a4-62e3-485a-b9bf-edef44483d9d" x1="654.75" y1="207.33" x2="654.75" y2="161.87"/><line class="uuid-4c26a3a4-62e3-485a-b9bf-edef44483d9d" x1="654.75" y1="252.13" x2="654.75" y2="222.67"/><line class="uuid-4c26a3a4-62e3-485a-b9bf-edef44483d9d" x1="654.75" y1="296.21" x2="654.75" y2="267.22"/></g></svg>